/* XPM */
static char *result[] = {
/* columns rows colors chars-per-pixel */
"32 32 3 1 ",
"  c #3D1F15",
". c #5F2C1B",
"X c #E5C899",
/* pixels */
"XXXXXXXX .......................",
"XXXXXXXX .......................",
"XXXXXXXX .......................",
"XXXXXXXX .......................",
"XXXXXXXX .......................",
"XXXXXXXX .......................",
"XXXXXXXX .......................",
"XXXXXXXX .......................",
"XXXXXXXX .......................",
"XXXXXXXX .......................",
"XXXXXXXX .......................",
"XXXXXXXX .......................",
"XXXXXXXX .......................",
"XXXXXXXX .......................",
"XXXXXXXXX  .....................",
"XXXXXXXXXX  ....................",
"XXXXXXXXXXX  ...................",
"XXXXXXXXXXXX  ..................",
"XXXXXXXXXXXXXX        ..........",
"XXXXXXXXXXXXXXXXXX          ....",
"XXXXXXXXXXXXXXXXXXXXXXXXX       ",
"XXXXXXXXXXXXXXXXXXXXXXXXXXXXXXXX",
"XXXXXXXXXXXXXXXXXXXXXXXXXXXXXXXX",
"XXXXXXXXXXXXXXXXXXXXXXXXXXXXXXXX",
"XXXXXXXXXXXXXXXXXXXXXXXXXXXXXXXX",
"XXXXXXXXXXXXXXXXXXXXXXXXXXXXXXXX",
"XXXXXXXXXXXXXXXXXXXXXXXXXXXXXXXX",
"XXXXXXXXXXXXXXXXXXXXXXXXXXXXXXXX",
"XXXXXXXXXXXXXXXXXXXXXXXXXXXXXXXX",
"XXXXXXXXXXXXXXXXXXXXXXXXXXXXXXXX",
"XXXXXXXXXXXXXXXXXXXXXXXXXXXXXXXX",
"XXXXXXXXXXXXXXXXXXXXXXXXXXXXXXXX"
};
