/* XPM */
static char *result[] = {
/* columns rows colors chars-per-pixel */
"32 32 4 1 ",
"  c #3D1F15",
". c #5F2C1B",
"X c #DAA855",
"o c #E5C899",
/* pixels */
"oooooooooooooooooooooooooooooooo",
"oooooooooooooooooooo            ",
"oooooooooooooooooo              ",
"ooooooooooooooo    .............",
"ooooooooooooo   . ..............",
"oooooooooooo  ... ..............",
"ooooooooooo  .... ..............",
"oooooooooo  ..... ..............",
"ooooooooo  ...... ..............",
"ooooooooo ....... ..............",
"oooooooo  ....... ..............",
"oooooooo ........ ..............",
"oooooooo ........ ..............",
"ooooooo  ........ ..............",
"ooooooo .........  ............X",
"ooooooo ..........  ..........XX",
"oooooo  ...........  ........XX.",
"oooooo  ............  ......XX..",
"oooooo  .............       XX  ",
"oooooo  ....................XX..",
"oooooo  .....................XX.",
"oooooo  ......................XX",
"oooooo  .......................X",
"oooooo  ........................",
"oooooo  ........................",
"oooooo  ........................",
"oooooo .........................",
"oooooo .........................",
"oooooo .........................",
"oooooo .........................",
"oooooo .........................",
"oooooo ........................."
};
