/* XPM */
static char *result[] = {
/* columns rows colors chars-per-pixel */
"32 32 4 1 ",
"  c #3D1F15",
". c #5F2C1B",
"X c #DAA855",
"o c #E5C899",
/* pixels */
"oooooooooooooooooooooooooooooooo",
"         ooooooooooooooooooooooo",
"           ooooooooooooooooooooo",
"..........   ooooooooooooooooooo",
"............    oooooooooooooooo",
"............. .   oooooooooooooo",
"............. ...  ooooooooooooo",
"............. ....  oooooooooooo",
"............. .....  ooooooooooo",
"............. ...... ooooooooooo",
"............. ......  oooooooooo",
"............. ....... oooooooooo",
"............. ....... oooooooooo",
"............. .......  ooooooooo",
"............  ........ ooooooooo",
"XX.........  ......... ooooooooo",
".XX.......  ..........  oooooooo",
"..XX.....  ...........  oooooooo",
"  XX      ............  oooooooo",
"..XX..................  oooooooo",
".XX...................  oooooooo",
"XX....................  oooooooo",
"......................  oooooooo",
"......................  oooooooo",
"......................  oooooooo",
"......................  oooooooo",
"....................... oooooooo",
"....................... oooooooo",
"....................... oooooooo",
"....................... oooooooo",
"....................... oooooooo",
"....................... oooooooo"
};
