/* XPM */
static char *dc7275ad9fd1450ea3617d1aa741affcIpxEktL6f1IV7B7U[] = {
/* columns rows colors chars-per-pixel */
"32 32 2 1 ",
"  c #C1A92F",
". c #D8C252",
/* pixels */
"                                ",
"                                ",
"                                ",
"                                ",
"                                ",
"                                ",
"                                ",
"                                ",
"                                ",
"                                ",
"                                ",
"                                ",
"                                ",
"                                ",
"                                ",
"                                ",
"................................",
"................................",
"................................",
"................................",
"................................",
"................................",
"................................",
"................................",
"                                ",
"                                ",
"                                ",
"                                ",
"                                ",
"                                ",
"                                ",
"                                "
};
