/* XPM */
static char *_02e786f056148cfd4b69bff4c50ddfaGihSw3qmnCUw9zoO[] = {
/* columns rows colors chars-per-pixel */
"32 32 2 1 ",
"  c #C1A92F",
". c #D8C252",
/* pixels */
"                                ",
"                                ",
"                                ",
"                                ",
"                                ",
"                                ",
"                                ",
"                                ",
".........................       ",
".........................       ",
".........................       ",
".........................       ",
".........................       ",
".........................       ",
".........................       ",
".........................       ",
"                 ........       ",
"                 ........       ",
"                 ........       ",
"                 ........       ",
"                 ........       ",
"                 ........       ",
"                 ........       ",
"                 ........       ",
"                 ........       ",
"                 ........       ",
"                 ........       ",
"                 ........       ",
"                 ........       ",
"                 ........       ",
"                 ........       ",
"                 ........       "
};
