/* XPM */
static char *_81850fb71ff444e9db73923502b5f92EiUuFB6EIFpdvBj6[] = {
/* columns rows colors chars-per-pixel */
"32 32 2 1 ",
"  c #C1A92F",
". c #D8C252",
/* pixels */
"                 ........       ",
"                 ........       ",
"                 ........       ",
"                 ........       ",
"                 ........       ",
"                 ........       ",
"                 ........       ",
"                 ........       ",
"                 ........       ",
"                 ........       ",
"                 ........       ",
"                 ........       ",
"                 ........       ",
"                 ........       ",
"                 ........       ",
"                 ........       ",
".........................       ",
".........................       ",
".........................       ",
".........................       ",
".........................       ",
".........................       ",
".........................       ",
".........................       ",
"                                ",
"                                ",
"                                ",
"                                ",
"                                ",
"                                ",
"                                ",
"                                "
};
