/* XPM */
static char *_74437efd7c44494d432992e48dee495LxTrLXpG9sF9Rum8[] = {
/* columns rows colors chars-per-pixel */
"32 32 2 1 ",
"  c #C1A92F",
". c #D8C252",
/* pixels */
"       ........                 ",
"       ........                 ",
"       ........                 ",
"       ........                 ",
"       ........                 ",
"       ........                 ",
"       ........                 ",
"       ........                 ",
"       ........                 ",
"       ........                 ",
"       ........                 ",
"       ........                 ",
"       ........                 ",
"       ........                 ",
"       ........                 ",
"       ........                 ",
"       .........................",
"       .........................",
"       .........................",
"       .........................",
"       .........................",
"       .........................",
"       .........................",
"       .........................",
"                                ",
"                                ",
"                                ",
"                                ",
"                                ",
"                                ",
"                                ",
"                                "
};
