/* XPM */
static char *b5628ee783a742d3b5a7a01496fe2b3c1zHyoq04j7ZtKA2d[] = {
/* columns rows colors chars-per-pixel */
"32 32 2 1 ",
"  c #C1A92F",
". c #D8C252",
/* pixels */
"                                ",
"                                ",
"                                ",
"                                ",
"                                ",
"                                ",
"                                ",
"                                ",
"        ........................",
"        ........................",
"        ........................",
"        ........................",
"        ........................",
"        ........................",
"        ........................",
"        ........................",
"        ........                ",
"        ........                ",
"        ........                ",
"        ........                ",
"        ........                ",
"        ........                ",
"        ........                ",
"        ........                ",
"        ........                ",
"        ........                ",
"        ........                ",
"        ........                ",
"        ........                ",
"        ........                ",
"        ........                ",
"        ........                "
};
