/* XPM */
static char *_796dfdbeb8c4659c4d97fefb8b2085eRsc13bQ8dWUfGlAo[] = {
/* columns rows colors chars-per-pixel */
"32 32 2 1 ",
"  c #C1A92F",
". c #D8C252",
/* pixels */
"       ........                 ",
"       ........                 ",
"       ........                 ",
"       ........                 ",
"       ........                 ",
"       ........                 ",
"       ........                 ",
"       ........                 ",
"       ........                 ",
"       ........                 ",
"       ........                 ",
"       ........                 ",
"       ........                 ",
"       ........                 ",
"       ........                 ",
"       ........                 ",
"       ........                 ",
"       ........                 ",
"       ........                 ",
"       ........                 ",
"       ........                 ",
"       ........                 ",
"       ........                 ",
"       ........                 ",
"       ........                 ",
"       ........                 ",
"       ........                 ",
"       ........                 ",
"       ........                 ",
"       ........                 ",
"       ........                 ",
"       ........                 "
};
