/* XPM */
static char *_b7bcd90cc614b2e95117d4de5a07992BtVtd5gymDU27hiw[] = {
/* columns rows colors chars-per-pixel */
"32 32 15 1 ",
"  c #1C3633",
". c #243763",
"X c #154D45",
"o c #655A52",
"O c #984E2E",
"+ c #AE5B36",
"@ c #AC850D",
"# c #DDAA12",
"$ c #C1A562",
"% c #45948A",
"& c #70D6C8",
"* c #AEA197",
"= c #CEB882",
"- c #B8E2EA",
"; c white",
/* pixels */
"################################",
"#@@@@@@@@@@@@@@@@@@@@@@@@@@@@@@#",
"#@................-...........@#",
"#@.........................-..@#",
"#@...................-........@#",
"#@............................@#",
"#@..........................*.@#",
"#@.....................-...***@#",
"#@........................**o*@#",
"#@=================......**o**@#",
"#@==================.....**o**@#",
"#@ ==================...**oo**@#",
"#@= =====  ===  =    =..**o***@#",
"#@== === == = == = == =.**o***@#",
"#@=== === == =  = = == =**o**.@#",
"#@====   =  === == =  ==**o**.@#",
"#@======================**o**.@#",
"#@======================**o**.@#",
"#@=====  == = =   =   = **o**.@#",
"#@======================**o**.@#",
"#@====== =   =  =  = =  =*o*=.@#",
"#@=======================*o*==@#",
"#@=======  = =  = =   =%%*o%==@#",
"#@====================%&&*o&%=@#",
"#@$$$$$$$$$$$$$$$$$$$$$%%%%%$$@#",
"#@O+==================%&&&&&%=@#",
"#@O+$$$$$$$$$$$$$$$$$%&;&XX&&%@#",
"#@O+=================%&;XXXX&%@#",
"#@+O+$$$$$$$$$$$$$$$$%&&XXX&&%@#",
"#@++O+++++++++++++++++%&&&&&%+@#",
"#@@@@@@@@@@@@@@@@@@@@@@@@@@@@@@#",
"################################"
};
