/* XPM */
static char *result[] = {
/* columns rows colors chars-per-pixel */
"32 32 7 1 ",
"  c black",
". c #243763",
"X c #DB390B",
"o c #AC850D",
"O c #DDAA12",
"+ c #7F8596",
"@ c #D2C4AD",
/* pixels */
"OOOOOOOOOOOOOOOOOOOOOOOOOOOOOOOO",
"OooooooooooooooooooooooooooooooO",
"Oo............................oO",
"Oo............................oO",
"Oo.....................+......oO",
"Oo....................+++.....oO",
"Oo...............@...++.++....oO",
"Oo..............@@@...+++.....oO",
"Oo............@@@@@@...+......oO",
"Oo..........@@@@@@@@@..+......oO",
"Oo........@@@@@@@@@@@@+.+.....oO",
"Oo......@@@@@@@@@@@@@++.++....oO",
"Oo....@@@@@@@@@@@@@@+@@@++....oO",
"Oo..@@@@@X@@@@@@@@@+@+@+@+....oO",
"Oo.@@@@@XXX@@@@@@@+@@@+@@+....oO",
"Oo..@@@@@X@@@@@@@+@@@@@@@@+...oO",
"Oo...@@@@@@@@@@@+@@@@@@@@@+@..oO",
"Oo....@@@@ @@@@@@@@@@@@@@@+@@.oO",
"Oo.....@@@@@@@@@@@@@@@@@@@@@@@oO",
"Oo......@@@ @@@@@@@@@@@@@@@@@@oO",
"Oo.......@@@@ @@@@@@@@@@  @@@@oO",
"Oo........@@@@@@ @@ @ @@  @@@.oO",
"Oo.........@@@@@@@@@@@@@@@@...oO",
"Oo..........@@@@@@@@@@@@@.....oO",
"Oo...........@@@@@@@@@@.......oO",
"Oo............@@@@@@@.........oO",
"Oo.............@@@@...........oO",
"Oo..............@.............oO",
"Oo............................oO",
"Oo............................oO",
"OooooooooooooooooooooooooooooooO",
"OOOOOOOOOOOOOOOOOOOOOOOOOOOOOOOO"
};
