/* XPM */
static char *result[] = {
/* columns rows colors chars-per-pixel */
"32 32 10 1 ",
"  c #243763",
". c #D42F00",
"X c #984E2E",
"o c #87533D",
"O c #F07A0B",
"+ c #AC850D",
"@ c #DDAA12",
"# c #F78F2C",
"$ c #F7ED64",
"% c #FBF389",
/* pixels */
"@@@@@@@@@@@@@@@@@@@@@@@@@@@@@@@@",
"@++++++++++++++++++++++++++++++@",
"@+                            +@",
"@+                            +@",
"@+                            +@",
"@+                            +@",
"@+              ..            +@",
"@+             ....           +@",
"@+            ..O...          +@",
"@+           ..OOO...         +@",
"@+          ..OOOOO...        +@",
"@+         ...O###OO...       +@",
"@+        ...O#$$$#OO...      +@",
"@+       ...O#$$$$$#OO...     +@",
"@+      ...O#$$$%$$$#O...     +@",
"@+      ..O#$$%%%%%$##O..     +@",
"@+      ..O#$$%%%%%$##O..     +@",
"@+      ..OO#%%%%%%%#O..      +@",
"@+       ..OO#%%%%%#O..o      +@",
"@+        ..O#%%%%%#..ooo     +@",
"@+        o..##%%%#..ooXXoo   +@",
"@+      ooXoXX#####.XXXoooo   +@",
"@+    ooXXoXXoXXoXXXooXoXXXoo +@",
"@+  ooooooXXoXo  ooXXXoXXXXXo +@",
"@+ oXXXXXoXoXo     oooXXXXXXo +@",
"@+ oXXXXXXoXXo       ooXXXXoo +@",
"@+ oXXXXXXoXo          oooo   +@",
"@+ oXXXXoXoo                  +@",
"@+ oooXXXoo                   +@",
"@+   ooooo                    +@",
"@++++++++++++++++++++++++++++++@",
"@@@@@@@@@@@@@@@@@@@@@@@@@@@@@@@@"
};
