/* XPM */
static char *d715123509734ba8bb665d0553fb8fccBtFEhhLefUuZJRHo[] = {
/* columns rows colors chars-per-pixel */
"32 32 2 1 ",
"  c #C1A92F",
". c #D8C252",
/* pixels */
"                 ........       ",
"                 ........       ",
"                 ........       ",
"                 ........       ",
"                 ........       ",
"                 ........       ",
"                 ........       ",
"                 ........       ",
"                 ........       ",
"                 ........       ",
"                 ........       ",
"                 ........       ",
"                 ........       ",
"                 ........       ",
"                 ........       ",
"                 ........       ",
"                 ........       ",
"                 ........       ",
"                 ........       ",
"                 ........       ",
"                 ........       ",
"                 ........       ",
"                 ........       ",
"                 ........       ",
"                 ........       ",
"                 ........       ",
"                 ........       ",
"                 ........       ",
"                 ........       ",
"                 ........       ",
"                 ........       ",
"                 ........       "
};
