/* XPM */
static char *result[] = {
/* columns rows colors chars-per-pixel */
"32 32 15 1 ",
"  c #243763",
". c #154D45",
"X c #655A52",
"o c #984E2E",
"O c #87533D",
"+ c #AE5B36",
"@ c #AC850D",
"# c #DDAA12",
"$ c #C1A562",
"% c #45948A",
"& c #70D6C8",
"* c #AEA197",
"= c #CEB882",
"- c #B8E2EA",
"; c white",
/* pixels */
"################################",
"#@@@@@@@@@@@@@@@@@@@@@@@@@@@@@@#",
"#@                -           @#",
"#@                         -  @#",
"#@                   -        @#",
"#@                            @#",
"#@                          * @#",
"#@                     -   ***@#",
"#@+++++++++++++++++       **X*@#",
"#@++++++++++++++++++     **X**@#",
"#@+++++++++++++++++++    **X**@#",
"#@++++++++++++++++++++  **XX**@#",
"#@++OOOOOOOOOOOOO++++++ **X***@#",
"#@++++OOOOOOOOOO++++++++**X***@#",
"#@++++++++OO++++++++++++**X** @#",
"#@+++++++++OO+++++++++++**X** @#",
"#@++++++++++OO++++++++++**X** @#",
"#@+++++++++++OO+++++++++**X** @#",
"#@+++++OO+++++OO++++++++**X** @#",
"#@++++++OO+++++OO+++++++**X**+@#",
"#@+++++++OOO+++OOO+++++++*X*++@#",
"#@o++++++++OOOOOOO+++++++*X*++@#",
"#@+o+++++++++++++++++++%%*X%++@#",
"#@++o+++++++++++++++++%&&*X&%+@#",
"#@+o+$$$$$$$$$$$$$$$$$$%%%%%$$@#",
"#@o+==================%&&&&&%=@#",
"#@o+$$$$$$$$$$$$$$$$$%&;&..&&%@#",
"#@o+=================%&;....&%@#",
"#@+o+$$$$$$$$$$$$$$$$%&&...&&%@#",
"#@++o+++++++++++++++++%&&&&&%+@#",
"#@@@@@@@@@@@@@@@@@@@@@@@@@@@@@@#",
"################################"
};
