/* XPM */
static char *result[] = {
/* columns rows colors chars-per-pixel */
"32 32 7 1 ",
"  c black",
". c gray17",
"X c #383333",
"o c #6F2F1C",
"O c #696767",
"+ c #838383",
"@ c gray84",
/* pixels */
"                                ",
"oooooooo ooooooooooooooooooooooo",
"ooooooo oooooooooooooooooooooooo",
"ooooooo oooooooooooooooooooooooo",
"oooooo oooooooooOOOooooooooooooo",
"oooooo ooooooo++++OOoooooooooooo",
"ooooo ooooooo++++++OOooooooooooo",
"ooooo oooooo+++++OOOOOoooooooooo",
"           +++++                ",
"oooo oooooo++++++OOO Ooooooooooo",
"ooo ooooooo++++++++O Ooooooooooo",
"ooo ooooooo++++++++O Ooooooooooo",
"oo ooooooooo+++++++O Ooooooooooo",
"oo oooooooooo+++++++Oooooooooooo",
"o oooooooooooo+++++ooooooooooooo",
"o ooooooooooooo++ooooooooooooooo",
"              +OO+              ",
" oooooooooooo+O++O+ooooooooooooo",
"ooooooooooooo+O++O+oooooooooooo ",
"oooooooooooooO++O++oooooooooooo ",
"ooooooooooooo+OO+++ooooooooooo o",
"oooooooooooooO++O++ooooooooooo o",
"oooooooooooooO++O++oooooooooo oo",
"ooooooooooooooOO++ooooooooo@o oo",
"            XO++OX........@     ",
"ooooooooooooooOO++oo......oo ooo",
"oooooooooooooo++++ooooooooo oooo",
"oooooooooooooo++++ooooooooo oooo",
"ooooooooooooooo++Ooooooooo ooooo",
"ooooooooooooooo++OOooooooo ooooo",
"ooooooooooooooo+++ooooooo oooooo",
"                                "
};
