/* XPM */
static char *_a7e8d51ee384b4990e706cb1fae3c789Zpj2eWgjBiXbwG9[] = {
/* columns rows colors chars-per-pixel */
"32 32 4 1 ",
"  c None",
". c #B4BEC9",
"X c #B9CDE3",
"o c #E4E9EE",
/* pixels */
"                                ",
"                                ",
"          oooo                  ",
"         oooooo                 ",
"        oooooooo                ",
"       ooXooooXoo               ",
"      ooXXooooXXoo              ",
"      ooXooooooXoo              ",
"     ooooooooooooo              ",
"     ooooooXXoooooo             ",
"    ooooooXXXXooooo             ",
"    ooooooXXXXoooooo            ",
"   oooooooXXXXoooooo            ",
"   ooooooooXXoooooooo           ",
"   ooooooooooooooooooo          ",
"  oooooooooooooooooooo          ",
"  oooooooooooooooooooo          ",
"  ooooooooooooooooooooo         ",
"  ooooooooooooooooooooo         ",
"  o.ooooooooooooooo.ooo         ",
"  o.oooooooooooooooo.o          ",
"   oo.ooooooooooo.ooo           ",
"    o.oooooooooooo.o            ",
"     ooo.oooooooooo             ",
"       o.oooooo.oo              ",
"          oo  ooo               ",
"                                ",
"                                ",
"                                ",
"                                ",
"                                ",
"                                "
};
