/* XPM */
static char *_714f70138654972ef3d6ccc299506baXnLKcEijZdgC1eDZ[] = {
/* columns rows colors chars-per-pixel */
"32 32 4 1 ",
"  c None",
". c #B4BEC9",
"X c #B9CDE3",
"o c #E4E9EE",
/* pixels */
"                                ",
"                                ",
"                  oooo          ",
"                 oooooo         ",
"                oooooooo        ",
"               ooXooooXoo       ",
"               oXXooooXXo       ",
"              ooXooooooXoo      ",
"              oooooooooooo      ",
"             oooooooooooooo     ",
"             ooooooXXoooooo     ",
"            ooooooXXXXoooooo    ",
"            oooooooXXooooooo    ",
"           ooooooooooooooooo    ",
"           oooooooooooooooooo   ",
"          ooooooooooooooooooo   ",
"          ooooooooooooooooooo   ",
"         oooooooooooooooooooo   ",
"         ooooooooooooooooooooo  ",
"         ooo.ooooooooooooooo.o  ",
"          o.oooooooooooooooo.o  ",
"           ooo.ooooooooooo.oo   ",
"            o.oooooooooooo.o    ",
"             oooooooooooooo     ",
"              oo.oooooo.oo      ",
"                oooooooo        ",
"                  oooo          ",
"                                ",
"                                ",
"                                ",
"                                ",
"                                "
};
