/* XPM */
static char *result[] = {
/* columns rows colors chars-per-pixel */
"32 32 4 1 ",
"  c #B4BEC9",
". c #B9CDE3",
"X c #E4E9EE",
"o c None",
/* pixels */
"oooooooooooooooooooooooooooooooo",
"oooooooooooooooooooooooooooooooo",
"oooooooooooooooooooooooooooooooo",
"oooooooooooooooooooooooooooooooo",
"oooooooooooooooXXooooooooooooooo",
"oooooooooooooXXXXXXooooooooooooo",
"ooooooooooooXXXXXXXXoooooooooooo",
"oooooooooooXXXXXXXXXXooooooooooo",
"ooooooooooXXX.XXXX.XXXoooooooooo",
"ooooooooooXX.XXXXXX.XXoooooooooo",
"oooooooooXXXXXXXXXXXXXXooooooooo",
"oooooooooXXXXXX..XXXXXXooooooooo",
"ooooooooXXXXXX....XXXXXXoooooooo",
"ooooooooXXXXX......XXXXXoooooooo",
"oooooooXXXXXXX....XXXXXXXooooooo",
"oooooooXXXXXXXX..XXXXXXXXooooooo",
"oooooooXXXXXXXXXXXXXXXXXXooooooo",
"ooooooXXXXXXXXXXXXXXXXXXXXoooooo",
"ooooooXXXXXXXXXXXXXXXXXXXXoooooo",
"ooooooXXXXXXXXXXXXXXXXXXXXoooooo",
"ooooooXXXXXXXXXXXXXXXXXXXXoooooo",
"ooooooXX XXXXXXXXXXXXXX XXoooooo",
"ooooooX XXXXXXXXXXXXXXXX Xoooooo",
"oooooooXXX XXXXXXXXXX XXXooooooo",
"ooooooooX XXXXXXXXXXXX Xoooooooo",
"oooooooooXXXXXXXXXXXXXXooooooooo",
"ooooooooooXX XXooXX XXoooooooooo",
"ooooooooooooXXooooXXoooooooooooo",
"oooooooooooooooooooooooooooooooo",
"oooooooooooooooooooooooooooooooo",
"oooooooooooooooooooooooooooooooo",
"oooooooooooooooooooooooooooooooo"
};
