/* XPM */
static char *result[] = {
/* columns rows colors chars-per-pixel */
"32 32 5 1 ",
"  c black",
". c #6F2F1C",
"X c #B4BEC9",
"o c #B9CDE3",
"O c #E4E9EE",
/* pixels */
"           OOOO                 ",
"........ .OOOOOOO...............",
"....... .OOOOOOOOO..............",
"....... OOoOOOOoOO..............",
"...... .OooOOOOooOO.............",
"...... OOoOOOOOOoOO.............",
"..... .OOOOOOOOOOOOO............",
"..... OOOOOOOoOOOOOO............",
"      OOOOOOoooOOOOO            ",
".... OOOOOOoooooOOOOO...........",
"... .OOOOOOOoooOOOOOO...........",
"... OOOOOOOOOoOOOOOOOO..........",
".. .OOOOOOOOOOOOOOOOOO..........",
".. OOOOOOOOOOOOOOOOOOO..........",
". .OOOOOOOOOOOOOOOOOOOO.........",
". OOOOOOOOOOOOOOOOOOOOO.........",
"  OOOOOOOOOOOOOOOOOOOOO         ",
" .OOOOOOOOOOOOOOOOOOXOOO........",
"...OXOOOOOOOOOOOOOOOOXO........ ",
"....OOOXOOOOOOOOOOXOOO......... ",
".....OXOOOOOOOOOOOOXO......... .",
"......OOOOXOOOOOOOOO.......... .",
".......OOXOOOOOOXOO.......... ..",
".........OOOOOOOO............ ..",
"           OOOO                 ",
"............................ ...",
"........................... ....",
"........................... ....",
".......................... .....",
".......................... .....",
"......................... ......",
"                                "
};
