/* XPM */
static char *dd52b7aa4da948c6c9e74683350e062d4BOxb2hEBuINJXqb[] = {
/* columns rows colors chars-per-pixel */
"32 32 4 1 ",
"  c None",
". c #B4BEC9",
"X c #B9CDE3",
"o c #E4E9EE",
/* pixels */
"                                ",
"                                ",
"                                ",
"                                ",
"                oo              ",
"              oooooo            ",
"             oooooooo           ",
"            ooXooooXoo          ",
"           ooXXooooXXoo         ",
"           ooXooooooXoo         ",
"          ooooooooooooo         ",
"          ooooooXXoooooo        ",
"          oooooXXXXooooo        ",
"         ooooooXXXXoooooo       ",
"         ooooooXXXXoooooo       ",
"        ooooooooXXoooooooo      ",
"        ooooooooooooooooooo     ",
"        ooooooooooooooooooo     ",
"       oooooooooooooooooooo     ",
"       ooooooooooooooooooooo    ",
"       ooooooooooooooooooooo    ",
"       oo.oooooooooooooo.ooo    ",
"       o.oooooooooooooooo.o     ",
"        ooo.oooooooooo.ooo      ",
"         o.oooooooooooo.o       ",
"           oo.oooooo.ooo        ",
"            o.oooooo.oo         ",
"             oooo ooo           ",
"               o   o            ",
"                                ",
"                                ",
"                                "
};
