/* XPM */
static char *_a490c6ceb8a4e3da7a01f25fda3b126S8DE0LnvCBSBGWWb[] = {
/* columns rows colors chars-per-pixel */
"32 32 4 1 ",
"  c None",
". c #B4BEC9",
"X c #B9CDE3",
"o c #E4E9EE",
/* pixels */
"              oooo              ",
"             oooooo             ",
"            oooooooo            ",
"           ooXooooXoo           ",
"           oXXooooXXo           ",
"          ooXooooooXoo          ",
"          ooooooooooooo         ",
"         oooooooooooooo         ",
"         ooooooXXoooooo         ",
"        ooooooXXXXoooooo        ",
"        oooooooXXooooooo        ",
"       oooooooooooooooooo       ",
"       oooooooooooooooooo       ",
"      ooooooooooooooooooo       ",
"      ooooooooooooooooooo       ",
"     ooooooooooooooooooooo      ",
"     ooooooooooooooooooooo      ",
"     oooooooooooooooooo.oo      ",
"      o.oooooooooooooooo.o      ",
"       ooo.oooooooooo.ooo       ",
"        o.oooooooooooo.o        ",
"         oooo.ooooooooo         ",
"          oo.oooooo.oo          ",
"            oooooooo            ",
"              oooo              ",
"                                ",
"                                ",
"                                ",
"                                ",
"                                ",
"                                ",
"                                "
};
