/* XPM */
static char *bf5c1369b5254df49ab14e174322e5a14Oo5XQor4TRF8TOE[] = {
/* columns rows colors chars-per-pixel */
"32 32 4 1 ",
"  c None",
". c #B4BEC9",
"X c #B9CDE3",
"o c #E4E9EE",
/* pixels */
"                                ",
"                                ",
"                                ",
"                                ",
"                                ",
"                 oo             ",
"               oooooo           ",
"              ooooooooo         ",
"             ooXooooXoo         ",
"            ooXXooooXXoo        ",
"            ooXooooooXoo        ",
"           ooooooooooooo        ",
"           ooooooXXoooooo       ",
"           oooooXXXXooooo       ",
"          ooooooXXXXooooo       ",
"          ooooooXXXXoooooo      ",
"          oooooooXXooooooo      ",
"         oooooooooooooooooo     ",
"         oooooooooooooooooo     ",
"         ooooooooooooooooooo    ",
"        oooooooooooooooooooo    ",
"        ooooooooooooooooooooo   ",
"        oo.ooooooooooooooo.ooo  ",
"         .oooooooooooooooo.o    ",
"          oo.ooooooooooo.oo     ",
"           .oooooooooooo.o      ",
"             oooooooo.ooo       ",
"              .oooooo.oo        ",
"                 oooooo         ",
"                   oo           ",
"                                ",
"                                "
};
