/* XPM */
static char *result[] = {
/* columns rows colors chars-per-pixel */
"32 32 5 1 ",
"  c black",
". c #6F2F1C",
"X c #B4BEC9",
"o c #B9CDE3",
"O c #E4E9EE",
/* pixels */
"                                ",
"........ .......................",
"....... ........................",
"....... ........................",
"...... .........................",
"...... ............OO...........",
"..... ...........OOOOOO.........",
"..... ..........OOOOOOOO........",
"               OOoOOOOoOO       ",
".... ..........OooOOOOooO.......",
"... ..........OOoOOOOOOoOO......",
"... ..........OOOOOOOOOOOO......",
".. ..........OOOOOOOOOOOOOO.....",
".. ..........OOOOOOooOOOOOO.....",
". ..........OOOOOOooooOOOOO.....",
". ..........OOOOOOOooOOOOOOO....",
"           OOOOOOOOOOOOOOOOO    ",
" ..........OOOOOOOOOOOOOOOOOO...",
"...........OOOOOOOOOOOOOOOOOO.. ",
"...........OOOOOOOOOOOOOOOOOOO. ",
"..........OOOOOOOOOOOOOOOOOOOO .",
"..........OOOOOOOOOOOOOOOOOOOO .",
"..........OOXOOOOOOOOOOOOOOOXOO.",
"...........XOOOOOOOOOOOOOOOOXO..",
"            OOXOOOOOOOOOOOXOO   ",
".............XOOOOOOOOOOOOXO ...",
"...............OOOOOOOOOOOO ....",
"................XOOOOOOXOO. ....",
"..................OOOOOO.. .....",
"....................OO.... .....",
"......................... ......",
"                                "
};
