/* XPM */
static char *_cfe11119dd74123f0d16519ed842dba5KhvOfipVZc8evsk[] = {
/* columns rows colors chars-per-pixel */
"32 32 4 1 ",
"  c None",
". c #B4BEC9",
"X c #B9CDE3",
"o c #E4E9EE",
/* pixels */
"                                ",
"                                ",
"                                ",
"                                ",
"                                ",
"                   oo           ",
"                 oooooo         ",
"                oooooooo        ",
"               ooXooooXoo       ",
"               oXXooooXXo       ",
"              ooXooooooXoo      ",
"              oooooooooooo      ",
"             oooooooooooooo     ",
"             ooooooXXoooooo     ",
"            ooooooXXXXooooo     ",
"            oooooooXXooooooo    ",
"           ooooooooooooooooo    ",
"           oooooooooooooooooo   ",
"           oooooooooooooooooo   ",
"           ooooooooooooooooooo  ",
"          oooooooooooooooooooo  ",
"          oooooooooooooooooooo  ",
"          oo.ooooooooooooooo.oo ",
"           .oooooooooooooooo.o  ",
"            oo.ooooooooooo.oo   ",
"             .oooooooooooo.o    ",
"               oooooooooooo     ",
"                .oooooo.oo      ",
"                  oooooo        ",
"                    oo          ",
"                                ",
"                                "
};
