/* XPM */
static char *_e8d431a69b9429ea42dd11ff87d2f9agiRtt0PBK7EqU6Yq[] = {
/* columns rows colors chars-per-pixel */
"32 32 4 1 ",
"  c None",
". c #B4BEC9",
"X c #B9CDE3",
"o c #E4E9EE",
/* pixels */
"                                ",
"                                ",
"         oooo                   ",
"        oooooo                  ",
"       oooooooo                 ",
"      ooXooooXoo                ",
"      oXXooooXXoo               ",
"     ooXooooooXoo               ",
"     oooooooooooo               ",
"    ooooooXXoooooo              ",
"    oooooXXXXooooo              ",
"   ooooooXXXXoooooo             ",
"   ooooooXXXXoooooo             ",
"  ooooooooXXoooooooo            ",
"  ooooooooooooooooooo           ",
"  ooooooooooooooooooo           ",
" oooooooooooooooooooo           ",
" ooooooooooooooooooooo          ",
" oooooooooooooooooooooo         ",
" o.ooooooooooooooo.oooo         ",
" o.oooooooooooooooo.o           ",
"  oo.ooooooooooo.ooo            ",
"   o.oooooooooooo.o             ",
"    oooooooooooooo              ",
"      o.oooooo.oo               ",
"        ooooooo                 ",
"           oo                   ",
"                                ",
"                                ",
"                                ",
"                                ",
"                                "
};
