/* XPM */
static char *result[] = {
/* columns rows colors chars-per-pixel */
"32 32 5 1 ",
"  c black",
". c #6F2F1C",
"X c #B4BEC9",
"o c #B9CDE3",
"O c #E4E9EE",
/* pixels */
"                                ",
"........ .......................",
"....... ..OOOO..................",
"....... .OOOOOO.................",
"...... .OOOOOOOO................",
"...... OOoOOOOoOO...............",
"..... OOooOOOOooOO..............",
"..... OOoOOOOOOoOO..............",
"     OOOOOOOOOOOOO              ",
".... OOOOOOooOOOOOO.............",
"... OOOOOOooooOOOOO.............",
"... OOOOOOooooOOOOOO............",
".. OOOOOOOooooOOOOOO............",
".. OOOOOOOOooOOOOOOOO...........",
". .OOOOOOOOOOOOOOOOOOO..........",
". OOOOOOOOOOOOOOOOOOOO..........",
"  OOOOOOOOOOOOOOOOOOOO          ",
" .OOOOOOOOOOOOOOOOOOOOO.........",
"..OOOOOOOOOOOOOOOOOOOOO........ ",
"..OXOOOOOOOOOOOOOOOXOOO........ ",
"..OXOOOOOOOOOOOOOOOOXO........ .",
"...OOXOOOOOOOOOOOXOOO......... .",
"....OXOOOOOOOOOOOOXO......... ..",
".....OOOXOOOOOOOOOO.......... ..",
"       OXOOOOOOXOO              ",
"..........OO..OOO........... ...",
"........................... ....",
"........................... ....",
".......................... .....",
".......................... .....",
"......................... ......",
"                                "
};
