/* XPM */
static char *result[] = {
/* columns rows colors chars-per-pixel */
"32 32 5 1 ",
"  c black",
". c #6F2F1C",
"X c #B4BEC9",
"o c #B9CDE3",
"O c #E4E9EE",
/* pixels */
"                                ",
"........ .......................",
"....... .OOOO...................",
"....... OOOOOO..................",
"...... OOOOOOOO.................",
"......OOoOOOOoOO................",
"..... OooOOOOooOO...............",
".....OOoOOOOOOoOO...............",
"     OOOOOOOOOOOO               ",
"....OOOOOOooOOOOOO..............",
"... OOOOOooooOOOOO..............",
"...OOOOOOooooOOOOOO.............",
".. OOOOOOooooOOOOOO.............",
"..OOOOOOOOooOOOOOOOO............",
". OOOOOOOOOOOOOOOOOOO...........",
". OOOOOOOOOOOOOOOOOOO...........",
" OOOOOOOOOOOOOOOOOOOO           ",
" OOOOOOOOOOOOOOOOOOOOO..........",
".OOOOOOOOOOOOOOOOOOOOOO........ ",
".OXOOOOOOOOOOOOOOOXOOOO........ ",
".OXOOOOOOOOOOOOOOOOXO......... .",
"..OOXOOOOOOOOOOOXOOO.......... .",
"...OXOOOOOOOOOOOOXO.......... ..",
"....OOOOOOOOOOOOOO........... ..",
"      OXOOOOOOXOO               ",
"........OOOOOOO............. ...",
"...........OO.............. ....",
"........................... ....",
".......................... .....",
".......................... .....",
"......................... ......",
"                                "
};
