/* XPM */
static char *_83287d2426a4eb4bae79935ace21d4bini9dtTsRORJ4Bjg[] = {
/* columns rows colors chars-per-pixel */
"32 32 4 1 ",
"  c None",
". c #B4BEC9",
"X c #B9CDE3",
"o c #E4E9EE",
/* pixels */
"           oooo                 ",
"          ooooooo               ",
"         ooooooooo              ",
"        ooXooooXoo              ",
"        oXXooooXXoo             ",
"       ooXooooooXoo             ",
"       ooooooooooooo            ",
"      oooooooXoooooo            ",
"      ooooooXXXooooo            ",
"     ooooooXXXXXooooo           ",
"     oooooooXXXoooooo           ",
"    oooooooooXoooooooo          ",
"    oooooooooooooooooo          ",
"   ooooooooooooooooooo          ",
"   oooooooooooooooooooo         ",
"  ooooooooooooooooooooo         ",
"  ooooooooooooooooooooo         ",
"  oooooooooooooooooo.ooo        ",
"   o.oooooooooooooooo.o         ",
"    ooo.oooooooooo.ooo          ",
"     o.oooooooooooo.o           ",
"      oooo.ooooooooo            ",
"       oo.oooooo.oo             ",
"         oooooooo               ",
"           oooo                 ",
"                                ",
"                                ",
"                                ",
"                                ",
"                                ",
"                                ",
"                                "
};
