/* XPM */
static char *result[] = {
/* columns rows colors chars-per-pixel */
"32 32 5 1 ",
"  c black",
". c #6F2F1C",
"X c #B4BEC9",
"o c #B9CDE3",
"O c #E4E9EE",
/* pixels */
"                                ",
"........ .......................",
"....... ........................",
"....... ........................",
"...... ........OO...............",
"...... ......OOOOOO.............",
"..... ......OOOOOOOO............",
"..... .....OOOOOOOOOO...........",
"          OOOoOOOOoOOO          ",
".... .....OOoOOOOOOoOO..........",
"... .....OOOOOOOOOOOOOO.........",
"... .....OOOOOOooOOOOOO.........",
".. .....OOOOOOooooOOOOOO........",
".. .....OOOOOooooooOOOOO........",
". .....OOOOOOOooooOOOOOOO.......",
". .....OOOOOOOOooOOOOOOOO.......",
"       OOOOOOOOOOOOOOOOOO       ",
" .....OOOOOOOOOOOOOOOOOOOO......",
"......OOOOOOOOOOOOOOOOOOOO..... ",
"......OOOOOOOOOOOOOOOOOOOO..... ",
"......OOOOOOOOOOOOOOOOOOOO.... .",
"......OOXOOOOOOOOOOOOOOXOO.... .",
"......OXOOOOOOOOOOOOOOOOXO... ..",
".......OOOXOOOOOOOOOOXOOO.... ..",
"        OXOOOOOOOOOOOOXO        ",
".........OOOOOOOOOOOOOO..... ...",
"..........OOXOO..OOXOO..... ....",
"............OO....OO....... ....",
".......................... .....",
".......................... .....",
"......................... ......",
"                                "
};
