/* XPM */
static char *result[] = {
/* columns rows colors chars-per-pixel */
"32 32 4 1 ",
"  c #B4BEC9",
". c #B9CDE3",
"X c #E4E9EE",
"o c None",
/* pixels */
"oooooooooooooooooooooooooooooooo",
"oooooooooooooooooooooooooooooooo",
"oooooooooooooooooooooooooooooooo",
"oooooooooooooooooooooooooooooooo",
"oooooooooooooXXooooooooooooooooo",
"oooooooooooXXXXXXooooooooooooooo",
"ooooooooooXXXXXXXXoooooooooooooo",
"oooooooooXXXXXXXXXXooooooooooooo",
"ooooooooXXX.XXXX.XXooooooooooooo",
"ooooooooXX.XXXXXX.XXoooooooooooo",
"oooooooXXXXXXXXXXXXXoooooooooooo",
"oooooooXXXXXX..XXXXXXooooooooooo",
"ooooooXXXXXX....XXXXXooooooooooo",
"ooooooXXXXX......XXXXXoooooooooo",
"oooooXXXXXXX....XXXXXXoooooooooo",
"oooooXXXXXXXX..XXXXXXXXooooooooo",
"oooooXXXXXXXXXXXXXXXXXXooooooooo",
"ooooXXXXXXXXXXXXXXXXXXXXoooooooo",
"ooooXXXXXXXXXXXXXXXXXXXXoooooooo",
"ooooXXXXXXXXXXXXXXXXXXXXXooooooo",
"ooooXXXXXXXXXXXXXXXXXXXXXooooooo",
"ooooXX XXXXXXXXXXXXXX XXXooooooo",
"ooooX XXXXXXXXXXXXXXXX Xoooooooo",
"oooooXXXX XXXXXXXXX XXXooooooooo",
"ooooooXX XXXXXXXXXXX Xoooooooooo",
"oooooooXXXXXXXXXXXXXXooooooooooo",
"ooooooooXX XXXXXX XXoooooooooooo",
"ooooooooooXXXoooXXXooooooooooooo",
"oooooooooooooooooooooooooooooooo",
"oooooooooooooooooooooooooooooooo",
"oooooooooooooooooooooooooooooooo",
"oooooooooooooooooooooooooooooooo"
};
