/* XPM */
static char *result[] = {
/* columns rows colors chars-per-pixel */
"64 64 3 1 ",
"  c black",
". c #00FF1E",
"X c #FBFF00",
/* pixels */
"                                                                ",
"                                                                ",
"                                                                ",
"                                                                ",
"                                                                ",
"                                                                ",
"                                                                ",
"                                                                ",
"                                                                ",
"                                                                ",
"                                                                ",
"                                                                ",
"                                                                ",
"                                                                ",
"                                                                ",
"                                                                ",
"                                                                ",
"                                                                ",
"                                                                ",
"                        XXXXXXXXXXXXXXXX                        ",
"                   XXXXX........XXXXXXXXXXXXX                   ",
"                XXX.............XXXXXXXXXXXXXXXX                ",
"              XX................XXXXXXXXXXXXXXXXXX              ",
"            XX..................XXXXXXXXXXXXXXXXXXXX            ",
"          XX....................XXXXXXXXXXXXXXXXXXXXXX          ",
"         X......................XXXXXXXXXXXXXXXXXXXXXXX         ",
"        X.......................XXXXXXXXXXXXXXXXXXXXXXXX        ",
"       X........................XXXXXXXXXXXXXXXXXXXXXXXXX       ",
"      X.........................XXXXXXXXXXXXXXXXXXXXXXXXXX      ",
"     X..........................XXXXXXXXXXXXXXXXXXXXXXXXXXX     ",
"     X..........................XXXXXXXXXXXXXXXXXXXXXXXXXXX     ",
"    X...........................XXXXXXXXXXXXXXXXXXXXXXXXXXXX    ",
"    X...........................XXXXXXXXXXXXXXXXXXXXXXXXXXXX    ",
"    X...........................XXXXXXXXXXXXXXXXXXXXXXXXXXXX    ",
"    X...........................XXXXXXXXXXXXXXXXXXXXXXXXXXXX    ",
"    X...........................XXXXXXXXXXXXXXXXXXXXXXXXXXXX    ",
"     X..........................XXXXXXXXXXXXXXXXXXXXXXXXXXX     ",
"     X..........................XXXXXXXXXXXXXXXXXXXXXXXXXXX     ",
"      X.........................XXXXXXXXXXXXXXXXXXXXXXXXXX      ",
"       X........................XXXXXXXXXXXXXXXXXXXXXXXXX       ",
"        X.......................XXXXXXXXXXXXXXXXXXXXXXXX        ",
"         X......................XXXXXXXXXXXXXXXXXXXXXXX         ",
"          XX....................XXXXXXXXXXXXXXXXXXXXXX          ",
"            XX..................XXXXXXXXXXXXXXXXXXXX            ",
"              XX................XXXXXXXXXXXXXXXXXX              ",
"                XXX.............XXXXXXXXXXXXXXXX                ",
"                   XXXXX........XXXXXXXXXXXXX                   ",
"                        XXXXXXXXXXXXXXXX                        ",
"                                                                ",
"                                                                ",
"                                                                ",
"                                                                ",
"                                                                ",
"                                                                ",
"                                                                ",
"                                                                ",
"                                                                ",
"                                                                ",
"                                                                ",
"                                                                ",
"                                                                ",
"                                                                ",
"                                                                ",
"                                                                "
};
