/* XPM */
static char *result[] = {
/* columns rows colors chars-per-pixel */
"64 64 5 1 ",
"  c black",
". c red",
"X c #16A6AC",
"o c #00F4FF",
"O c white",
/* pixels */
"                                                                ",
"                                                                ",
"                                                                ",
"                                                                ",
"                                                                ",
"                                                                ",
"                           oooooooo                             ",
"                        oooooooooooooo                          ",
"                      oooooooooooooooooo                        ",
"                     oooooooooooooooooooo                       ",
"                   oooooooooooooooooooooooo                     ",
"                  oooooooooooooooooooooooooo                    ",
"                 oooooooooooooooooooooooooooo                   ",
"                 oooooooooooooooooooooooooooo                   ",
"                oooooooooooooooooooooooooooooo                  ",
"               oooooooooooooooooooooooooooooooo                 ",
"               oooooooooooooooooooooooooooooooo                 ",
"              oooooooooooooooooooooooooooooooooo                ",
"              oooooooooooooooooooooooooooooooooo                ",
"             oooooooooooooooooooooooooooooooooooo               ",
"             ooooooooOOOOOoooooooooOOOOOooooooooo               ",
"             oooooooOOOOOOOoooooooOOOOOOOoooooooo               ",
"             ooooooOOOOOOOOOoooooOOOOOOOOOooooooo               ",
"            ooooooOOOOOOOOOOOoooOOOOOOOOOOOooooooo              ",
"            ooooooOOOOO...OOOoooOO...OOOOOOooooooo              ",
"            ooooooOOOOO...OOOoooOO...OOOOOOooooooo              ",
"            ooooooOOOOO...OOOoooOO...OOOOOOooooooo              ",
"            ooooooOOOOOOOOOOOoooOOOOOOOOOOOooooooo              ",
"            oooooooOOOOOOOOOoooooOOOOOOOOOoooooooo              ",
"            ooooooooOOOOOOOoooooooOOOOOOOooooooooo              ",
"            oooooooooOOOOOoooooooooOOOOOoooooooooo              ",
"            oooooooooooooooooooooooooooooooooooooo              ",
"            oooooooooooooooooooooooooooooooooooooo              ",
"            oooooooooooooooooooooooooooooooooooooo              ",
"            oooooooooooooooooooooooooooooooooooooo              ",
"            oooooooooooooooooooooooooooooooooooooo              ",
"            oooooooooooooooooooooooooooooooooooooo              ",
"            oooooooooooooooooooooooooooooooooooooo              ",
"            oooooooooooooooooooooooooooooooooooooo              ",
"            oooooooooooooooooooooooooooooooooooooo              ",
"            oooooooooooooooooooooooooooooooooooooo              ",
"            oooooooooooooooooooooooooooooooooooooo              ",
"            oooooooooooooooooooooooooooooooooooooo              ",
"           oooooooooooooooooooooooooooooooooooooooo             ",
"           oooooooooooooooooooooooooooooooooooooooo             ",
"           oooooooooooooooooooooooooooooooooooooooo             ",
"           oooooooooooooooooooooooooooooooooooooooo             ",
"           oooooooooooooooooooooooooooooooooooooooo             ",
"           oooooooooooooooooooooooooooooooooooooooo             ",
"           oooooooooooooooooooooooooooooooooooooooo             ",
"          oooooooooooooooooooooooooooooooooooooooooo            ",
"          oooooooooooooooooooooooooooooooooooooooooo            ",
"          oooooooooooooooooooooooooooooooooooooooooo            ",
"         oooooooooooooooooooooooooooooooooooooooooooo           ",
"         oooXoooXooooooXooooooXXooooooXoooooooXoooXoo           ",
"        oooXoooXooooooXoooooooXXoooooooXoooooooXoooXoo          ",
"       oooXoooXoooooooXoooooooXXoooooooXoooooooXooooXoo         ",
"      oooXooooXoooooooXoooooooXXoooooooXoooooooXoooooXoo        ",
"     oooXooooXXooooooXXoooooooXXoooooooXXooooooXXoooooXoo       ",
"    oooXoooooXXooooooXXooooooXooXooooooXXooooooXXooooooXoo      ",
"   oooXoo  oXooXo  oXooXo  oXooooXo  oXooXo  oXooXo  oooXoo     ",
"    oooo    oooo    oooo    oooooo    oooo    oooo    oooo      ",
"     oo      oo      oo      oooo      oo      oo      oo       ",
"                                                                "
};
