/* XPM */
static char *_484004fa7a2467ccf22f66537339ebfhe3SR5LIDq4k98ZB[] = {
/* columns rows colors chars-per-pixel */
"64 64 2 1 ",
"  c black",
". c red",
/* pixels */
"                                                                ",
"                          ............                          ",
"                      ....................                      ",
"                   ..........................                   ",
"                 ..............................                 ",
"               ..................................               ",
"              ....................................              ",
"             ......................................             ",
"           ..........................      ..........           ",
"          ..........................        ..........          ",
"         ..........................          ..........         ",
"        ..........................            ..........        ",
"        ..........................            ..........        ",
"       ...........................            ..........        ",
"      ............................            .........         ",
"     .............................            .......           ",
"     .............................            ......            ",
"    ...............................          ......             ",
"    ................................        ......              ",
"   ..................................      .....                ",
"   ............................................                 ",
"   ...........................................                  ",
"  ...........................................                   ",
"  .........................................                     ",
"  ........................................                      ",
"  .......................................                       ",
" ......................................                         ",
" .....................................                          ",
" ....................................                           ",
" ...................................                            ",
" .................................                              ",
" ................................                               ",
" ...............................                                ",
" ................................                               ",
" ..................................                             ",
" ...................................                            ",
" ....................................                           ",
" ......................................                         ",
"  ......................................                        ",
"  .......................................                       ",
"  .........................................                     ",
"  ..........................................                    ",
"   ..........................................                   ",
"   ............................................                 ",
"   .............................................                ",
"    .............................................               ",
"    ...............................................             ",
"     ...............................................            ",
"     ................................................           ",
"      .................................................         ",
"       .................................................        ",
"        ................................................        ",
"        ................................................        ",
"         ..............................................         ",
"          ............................................          ",
"           ..........................................           ",
"             ......................................             ",
"              ....................................              ",
"               ..................................               ",
"                 ..............................                 ",
"                   ..........................                   ",
"                      ....................                      ",
"                          ............                          ",
"                                                                "
};
