/* XPM */
static char *result[] = {
/* columns rows colors chars-per-pixel */
"32 32 6 1 ",
"  c #982C0D",
". c #D42F00",
"X c #758577",
"o c #F2AC4E",
"O c #F7ED64",
"+ c #DDDCAE",
/* pixels */
"XXXXXXXXXXXXXXXXXXXXXXXXXXXXXXXX",
"X       X       X       X       ",
"X       X       .       X       ",
"X       X      ...      X       ",
"XXXXXXXXXXXXXXX.o..XXXXXXXXXXXXX",
"    X       X .oOO. X       X   ",
"    X       X .oOO. X       X   ",
"    X       X .oOo..X       X   ",
"XXXXXXXXXXXXXX.....XXXXXXXXXXXXX",
"        X      +++      X       ",
"        X      +++      X       ",
"        X      +++      X       ",
"XXXXXXXXXXXXXXX+++XXXXXXXXXXXXXX",
"    X       X  +++  X       X   ",
"    X       X       X       X   ",
"    X       X       X       X   ",
"XXXXXXXXXXXXXXXXXXXXXXXXXXXXXXXX",
"        X       X       X       ",
"        X       X       X       ",
"        X       X       X       ",
"XXXXXXXXXXXXXXXXXXXXXXXXXXXXXXXX",
"    X       X       X       X   ",
"    X       X       X       X   ",
"    X       X       X       X   ",
"XXXXXXXXXXXXXXXXXXXXXXXXXXXXXXXX",
"        X       X       X       ",
"        X       X       X       ",
"XXXXXXXXXXXXXXXXXXXXXXXXXXXXXXXX",
"    X       X       X       X   ",
"    X       X       X       X   ",
"    X       X       X       X   ",
"XXXXXXXXXXXXXXXXXXXXXXXXXXXXXXXX"
};
