/* XPM */
static char *result[] = {
/* columns rows colors chars-per-pixel */
"32 32 5 1 ",
"  c black",
". c #6C3722",
"X c #982C0D",
"o c #A65737",
"O c #758577",
/* pixels */
"OOOOOOOOOOOOOOOOOOOOOOOOOOOOOOOO",
"OXXXXXXXOXXXX..   XXXXXXOXXXXXXX",
"OXXXXXXXOXXX....   XXXXXOXXXXXXX",
"OXXXXXXXOXX..oo..    XXXOXXXXXXX",
"OOOOOOOOO..o.oo.o..    OOOOOOOOO",
"XXXXOXXX..oo.oo.oo...   XXXXOXXX",
"XXXXOXX.o.oo.oo.oo.oo.   XXXOXXX",
"XXXXOXX.o.oo.oo.oo.ooo.  XXXOXXX",
"OOOOOO.oo.oo.oo.oo.ooo.   OOOOOO",
"XXXXXX.oo.oo.oo.oo.oooo.  XXXXXX",
"XXXXX.ooo.oo.oo.oo.oooo.   XXXXX",
"XXXXX.ooo.oo.oo.oo.oooo.   XXXXX",
"OOOOO.ooo.oo.oo.oo.oooo.   OOOOO",
"XXXXO.ooo.oo.oo.oo.oooo.   XOXXX",
"XXXXO.ooo.oo.oo.oo.oooo.   XOXXX",
"XXXXO.ooo.oo.oo.oo.oooo.   XOXXX",
"OOOOO.ooo.oo.oo.oo.oooo.   OOOOO",
"XXXXX.ooo.oo.oo.oo.oooo.   XXXXX",
"XXXXX.ooo.oo.oo.oo.oooo.   XXXXX",
"XXXXX.ooo.oo.oo.oo.o..o.   XXXXX",
"OOOOO.ooo.oo.oo.oo.oo.o.   OOOOO",
"XXXXO.ooo.oo.oo.oo.oo.o.   XOXXX",
"XXXXO.ooo.oo.oo.oo.oo.o.   XOXXX",
"XXXXO.ooo.oo.oo.oo.oo.o.   XOXXX",
"OOOOO.ooo.oo.oo.oo.o..o.   OOOOO",
"XXXXX.ooo.oo.oo.oo.oooo.   XXXXX",
"XXXXX.ooo.oo.oo.oo.oooo.   XXXXX",
"OOOOO.ooo.oo.oo.oo.oooo.   OOOOO",
"XXXXO.ooo.oo.oo.oo.oooo.   XOXXX",
"XXXXO.ooo.oo.oo.oo.oooo.   XOXXX",
"XXXXO.ooo.oo.oo.oo.oooo.   XOXXX",
"OOOOO...................   OOOOO"
};
