/* XPM */
static char *a2e2ff1e94ca4d59bfc52fa3acff8863NrHk0NHtz32iLJSI[] = {
/* columns rows colors chars-per-pixel */
"32 32 4 1 ",
"  c #6C3722",
". c #982C0D",
"X c #A65737",
"o c #758577",
/* pixels */
"oooooooooooooooooooooooooooooooo",
"o.......o....     ......o.......",
"o.......o...  XXX  .....o.......",
"o.......o.. X XXX X  ...o.......",
"ooooooooo  XX XXX XXX  ooooooooo",
"....o...  XXX XXX XXX X ....o...",
"....o.. X XXX XXX XXX XX ...o...",
"....o.. X XXX XXX XXX XX ...o...",
"oooooo XX XXX XXX XXX XXX oooooo",
"...... XX XXX XXX XXX XXX ......",
"..... XXX XXX XXX XXX XXXX .....",
"..... XXX XXX XXX XXX XXXX .....",
"ooooo XXX XXX XXX XXX XXXX ooooo",
"....o XXX XXX XXX XXX XXXX .o...",
"....o XXX XXX XXX XXX XXXX .o...",
"....o XXX XXX XXX XXX XXXX .o...",
"ooooo XXX XXX XXX XXX XXXX ooooo",
"..... XXX XXX XXX XXX XXXX .....",
"..... XXX XXX XXX XXX X  X .....",
"..... XXX XXX XXX XXX XX X .....",
"ooooo XXX XXX XXX XXX XX X ooooo",
"....o XXX XXX XXX XXX XX X .o...",
"....o XXX XXX XXX XXX XX X .o...",
"....o XXX XXX XXX XXX X  X .o...",
"ooooo XXX XXX XXX XXX XXXX ooooo",
"..... XXX XXX XXX XXX XXXX .....",
"..... XXX XXX XXX XXX XXXX .....",
"ooooo XXX XXX XXX XXX XXXX ooooo",
"....o XXX XXX XXX XXX XXXX .o...",
"....o XXX XXX XXX XXX XXXX .o...",
"....o XXX XXX XXX XXX XXXX .o...",
"ooooo                      ooooo"
};
