/* XPM */
static char *result[] = {
/* columns rows colors chars-per-pixel */
"32 32 4 1 ",
"  c black",
". c #6F2F1C",
"X c #AE7535",
"o c #D08D42",
/* pixels */
"                                ",
"........ .......................",
"....... ........................",
"....... ........XX..............",
"...... ........XooX.............",
"...... .......XooooX............",
"..... .......Xo....oX...........",
"..... ......Xo......oX..........",
"            Xo      oX          ",
".... .......Xo......oX..........",
"... .........Xo....oX...........",
"... ..........XooooX............",
".. ............XooX.............",
".. .............oX..............",
". ..............oX..............",
". ..............oX..............",
"                oX              ",
" ...............oX..............",
"..............oooX............. ",
"..............XXoX............. ",
"................oX............ .",
".............ooooX............ .",
".............XXXXX........... ..",
"............................. ..",
"                                ",
"............................ ...",
"........................... ....",
"........................... ....",
".......................... .....",
".......................... .....",
"......................... ......",
"                                "
};
